# xmcd CD database file
#
# Track frame offsets:
#	150
#	23348
#	41264
#	54757
#	74850
#
# Disc length: 1335 seconds
#
# Revision: 0
# Processed by: cddbd v1.4PL0 Copyright (c) Steve Scherf et al.
# Submitted via: CDex 1.50Beta7
#
DISCID=35053505
DTITLE=Jinal - Red cd [fujifilm]
DYEAR=2003
DGENRE=Jazz
TTITLE0=Fiona Apple - Across the Universe
TTITLE1=Sade - Only Love Can Set You Free  Love is all you need
TTITLE2=Cat Stevens - Rushmore OST
TTITLE3=3 Doors Down - Be Like That
TTITLE4=unknown
EXTD=YEAR: 2003
EXTT0=
EXTT1=
EXTT2=
EXTT3=
EXTT4=
PLAYORDER=
